<svg xmlns="http://www.w3.org/2000/svg" xmlns:xlink="http://www.w3.org/1999/xlink" width="585.305" height="560.045" viewBox="0 0 585.305 560.045">
  <defs>
    <filter id="Box" x="442.649" y="353.787" width="142.656" height="142.656" filterUnits="userSpaceOnUse">
      <feOffset input="SourceAlpha"/>
      <feGaussianBlur stdDeviation="7.5" result="blur"/>
      <feFlood flood-opacity="0.161"/>
      <feComposite operator="in" in2="blur"/>
      <feComposite in="SourceGraphic"/>
    </filter>
    <filter id="Box-2" x="0" y="197.787" width="142.656" height="142.656" filterUnits="userSpaceOnUse">
      <feOffset input="SourceAlpha"/>
      <feGaussianBlur stdDeviation="7.5" result="blur-2"/>
      <feFlood flood-opacity="0.161"/>
      <feComposite operator="in" in2="blur-2"/>
      <feComposite in="SourceGraphic"/>
    </filter>
    <filter id="Box-3" x="421.146" y="27.859" width="164.158" height="164.158" filterUnits="userSpaceOnUse">
      <feOffset input="SourceAlpha"/>
      <feGaussianBlur stdDeviation="7.5" result="blur-3"/>
      <feFlood flood-opacity="0.161"/>
      <feComposite operator="in" in2="blur-3"/>
      <feComposite in="SourceGraphic"/>
    </filter>
    <filter id="Box-4" x="145.542" y="0" width="114.816" height="114.816" filterUnits="userSpaceOnUse">
      <feOffset input="SourceAlpha"/>
      <feGaussianBlur stdDeviation="7.5" result="blur-4"/>
      <feFlood flood-opacity="0.161"/>
      <feComposite operator="in" in2="blur-4"/>
      <feComposite in="SourceGraphic"/>
    </filter>
    <filter id="Box-5" x="57.165" y="381.904" width="178.141" height="178.141" filterUnits="userSpaceOnUse">
      <feOffset dy="5" input="SourceAlpha"/>
      <feGaussianBlur stdDeviation="7.5" result="blur-5"/>
      <feFlood flood-opacity="0.161"/>
      <feComposite operator="in" in2="blur-5"/>
      <feComposite in="SourceGraphic"/>
    </filter>
    <filter id="Exclusion_1" x="167.061" y="120.055" width="290.868" height="290.868" filterUnits="userSpaceOnUse">
      <feOffset dy="5" input="SourceAlpha"/>
      <feGaussianBlur stdDeviation="7.5" result="blur-6"/>
      <feFlood flood-opacity="0.161"/>
      <feComposite operator="in" in2="blur-6"/>
      <feComposite in="SourceGraphic"/>
    </filter>
    <linearGradient id="linear-gradient" y1="0.671" x2="1" y2="0.671" gradientUnits="objectBoundingBox">
      <stop offset="0" stop-color="#246fdb"/>
      <stop offset="0.055" stop-color="#2973df"/>
      <stop offset="0.278" stop-color="#377deb"/>
      <stop offset="0.549" stop-color="#3f83f2"/>
      <stop offset="1" stop-color="#4285f4"/>
    </linearGradient>
  </defs>
  <g id="gmp_products_teaser" transform="translate(566.153 -4244.385)">
    <g id="Tag_Manager" data-name="Tag Manager" transform="translate(-101.004 4620.672)">
      <g transform="matrix(1, 0, 0, 1, -465.15, -376.29)" filter="url(#Box)">
        <rect id="Box-6" data-name="Box" width="97.656" height="97.656" rx="20" transform="translate(465.15 376.29)" fill="#fff"/>
      </g>
      <g id="gmp_tagmanager_svg" transform="translate(5.306 4.35)">
        <path id="Path_432" data-name="Path 432" d="M0,0H88V88H0Z" fill="none"/>
        <g id="tag-manager_icon" transform="translate(16.098 14.664)">
          <path id="Path_454" data-name="Path 454" d="M16.132,37.132l-9.687-9.7L27.253,6.413l9.864,9.864Z" transform="translate(16.621 16.545)" fill="#8ab4f8"/>
          <path id="Path_455" data-name="Path 455" d="M32.977,10.573,23.113.708,2.2,21.623a6.972,6.972,0,0,0,0,9.864L23.113,52.4l9.675-9.722-15.8-16.113Z" transform="translate(-0.154 1.335)" fill="#4285f4"/>
          <path id="Path_456" data-name="Path 456" d="M38.681,23.108,17.766,2.194A6.975,6.975,0,0,0,7.9,12.058L28.828,32.973a6.975,6.975,0,1,0,9.864-9.864Z" transform="translate(15.057 -0.151)" fill="#8ab4f8"/>
          <circle id="Ellipse_34" data-name="Ellipse 34" cx="6.912" cy="6.912" r="6.912" transform="translate(18.038 48.885) rotate(-45)" fill="#246fdb"/>
        </g>
      </g>
    </g>
    <g id="Campaign_Manager" data-name="Campaign Manager" transform="translate(-543.653 4464.672)">
      <g transform="matrix(1, 0, 0, 1, -22.5, -220.29)" filter="url(#Box-2)">
        <rect id="Box-7" data-name="Box" width="97.656" height="97.656" rx="20" transform="translate(22.5 220.29)" fill="#fff"/>
      </g>
      <g id="campaign-manager_icon" transform="translate(27.647 28.219)">
        <path id="Path_485" data-name="Path 485" d="M21.51,35.438a5.035,5.035,0,0,1-7.144,0L6.82,42.974A15.825,15.825,0,0,0,29.184,20.61l-7.547,7.547a5.3,5.3,0,0,1-.127,7.282Z" transform="translate(-2.588 -1.56)" fill="#34a853"/>
        <path id="Path_486" data-name="Path 486" d="M35.5,21.448a5.194,5.194,0,0,1-7.282,0L20.67,28.994A15.825,15.825,0,0,0,43.034,6.63l-7.547,7.547a5.194,5.194,0,0,1,0,7.282Z" transform="translate(-1.758 -2.398)" fill="#5bb974"/>
        <path id="Path_487" data-name="Path 487" d="M43.4,6.869A15.825,15.825,0,0,0,21.039,29.233l7.547-7.547a5.056,5.056,0,0,1,7.144-7.144A5.426,5.426,0,1,0,43.4,6.869Z" transform="translate(-1.99 -2.637)" fill="#1e8e3e"/>
        <path id="Path_488" data-name="Path 488" d="M29.423,20.849A15.825,15.825,0,0,0,7.059,43.213a5.83,5.83,0,0,0,8.2,0c2.247-2.247,1.717-5.3-.53-7.547a5.056,5.056,0,0,1,7.144-7.144,5.34,5.34,0,1,0,7.939-7.144,1.823,1.823,0,0,0-.392-.53Z" transform="translate(-2.827 -1.8)" fill="#5bb974"/>
      </g>
    </g>
    <g id="Display_Video_360_" data-name="Display &amp; Video (360)" transform="translate(-122.507 4294.744)">
      <g transform="matrix(1, 0, 0, 1, -443.65, -50.36)" filter="url(#Box-3)">
        <rect id="Box-8" data-name="Box" width="119.158" height="119.158" rx="20" transform="translate(443.65 50.36)" fill="#fff"/>
      </g>
      <g id="gmp_display_video_svg" transform="translate(25.086 25.086)">
        <path id="Path_431" data-name="Path 431" d="M0,0H74.417V74.417H0Z" fill="none"/>
        <g id="display-video-360_icon" transform="translate(12.4 9.968)">
          <path id="Path_457" data-name="Path 457" d="M40.279,7.845a6.826,6.826,0,1,1,6.827,11.822L11.539,40.145A6.826,6.826,0,1,1,4.711,28.324Z" transform="translate(-1.128 13.631)" fill="#81c995"/>
          <path id="Path_458" data-name="Path 458" d="M14.838,7.15A6.815,6.815,0,0,0,6.613.452,7.05,7.05,0,0,0,1.244,7.4V48.075l13.583.247Z" transform="translate(-1.243 -0.279)" fill="#34a853"/>
          <path id="Path_459" data-name="Path 459" d="M40.507,33.616A7.144,7.144,0,0,0,49.824,31.1a6.768,6.768,0,0,0-2.432-9.318L11.59,1.269a6.744,6.744,0,0,0-9.4,2.526,6.791,6.791,0,0,0,2.5,9.329Z" transform="translate(-1.203 -0.297)" fill="#5bb974"/>
          <path id="Path_460" data-name="Path 460" d="M38,19.633,5.624,37.716V22.183L31.309,7.86A7.05,7.05,0,0,1,41.344,11.6,6.815,6.815,0,0,1,38,19.633Z" transform="translate(7.959 13.733)" fill="#81c995"/>
          <circle id="Ellipse_35" data-name="Ellipse 35" cx="6.791" cy="6.791" r="6.791" transform="translate(0.012 41.344)" fill="#1e8e3e"/>
        </g>
      </g>
    </g>
    <g id="Search_Ads_360_" data-name="Search Ads (360)" transform="translate(-398.111 4266.885)">
      <g transform="matrix(1, 0, 0, 1, -168.04, -22.5)" filter="url(#Box-4)">
        <rect id="Box-9" data-name="Box" width="69.816" height="69.816" rx="10" transform="translate(168.04 22.5)" fill="#fff"/>
      </g>
      <g id="gmp_search_ads_svg" transform="translate(13.017 13.017)">
        <path id="Path_429" data-name="Path 429" d="M0,0H43.812V40.625H0Z" fill="none"/>
        <g id="search-ads-360_icon" transform="translate(7.301 6.875)">
          <path id="Path_463" data-name="Path 463" d="M20.281,14.934l-4.45-4.174-5.074,4.77,4.45,4.174a3.769,3.769,0,0,0,5.074,0A3.2,3.2,0,0,0,20.281,14.934Z" transform="translate(7.858 6.882)" fill="#1a73e8"/>
          <path id="Path_464" data-name="Path 464" d="M22.414,3.858a13.744,13.744,0,0,0-18.373,0h0A11.442,11.442,0,0,0,4.362,20.6a13.754,13.754,0,0,0,18.052.321h0A11.453,11.453,0,0,0,22.414,3.858ZM17.3,16.177h0a6.12,6.12,0,0,1-8-.164A5.089,5.089,0,0,1,9.122,8.6h0a6.12,6.12,0,0,1,8,.164A5.089,5.089,0,0,1,17.3,16.177Z" transform="translate(-0.558 -0.336)" fill="#669df6"/>
        </g>
      </g>
    </g>
    <g id="Analytics" transform="translate(-486.488 4643.789)">
      <g transform="matrix(1, 0, 0, 1, -79.67, -399.4)" filter="url(#Box-5)">
        <rect id="Box-10" data-name="Box" width="133.141" height="133.141" rx="20" transform="translate(79.67 399.4)" fill="#fff"/>
      </g>
      <g id="gmp_analytics_svg" transform="translate(24.872 22.678)">
        <path id="Path_428" data-name="Path 428" d="M0,0H83.037V81.217H0Z" fill="none"/>
        <g id="analytics_icon" transform="translate(13.837 10.861)">
          <path id="Path_447" data-name="Path 447" d="M27.823,52.607A7.377,7.377,0,0,1,25.28,58.2a7.609,7.609,0,0,1-12.635-5.9V7.969a7.609,7.609,0,0,1,12.64-5.9,7.376,7.376,0,0,1,2.539,5.59Z" transform="translate(27.526 -0.177)" fill="#f9ab00"/>
          <path id="Path_448" data-name="Path 448" d="M8.62,29.351a7.425,7.425,0,1,1,0,14.846,7.425,7.425,0,1,1,0-14.846Zm19.969-22.5a7.71,7.71,0,0,0-7.381,7.8V34.6c0,5.411,2.434,8.7,6,9.4a7.729,7.729,0,0,0,6.33-1.538,7.373,7.373,0,0,0,2.782-5.771V14.314A7.367,7.367,0,0,0,34.054,9a7.706,7.706,0,0,0-5.465-2.145Z" transform="translate(-1.031 15.733)" fill="#e37400"/>
        </g>
      </g>
    </g>
    <g id="GMP" transform="translate(-388.35 4372.939)">
      <g transform="matrix(1, 0, 0, 1, -177.8, -128.55)" filter="url(#Exclusion_1)">
        <path id="Exclusion_1-2" data-name="Exclusion 1" d="M122.934,245.868a123.841,123.841,0,0,1-24.775-2.5,122.262,122.262,0,0,1-43.958-18.5,123.293,123.293,0,0,1-44.54-54.088A122.313,122.313,0,0,1,2.5,147.709a124.132,124.132,0,0,1,0-49.551A122.261,122.261,0,0,1,21,54.2,123.293,123.293,0,0,1,75.082,9.661,122.312,122.312,0,0,1,98.158,2.5a124.132,124.132,0,0,1,49.551,0A122.263,122.263,0,0,1,191.668,21a123.292,123.292,0,0,1,44.54,54.087,122.312,122.312,0,0,1,7.163,23.076,124.133,124.133,0,0,1,0,49.551,122.264,122.264,0,0,1-18.5,43.958,123.292,123.292,0,0,1-54.088,44.54,122.314,122.314,0,0,1-23.076,7.163A123.843,123.843,0,0,1,122.934,245.868Zm-.54-183.759a62.35,62.35,0,0,0-35.025,10.7,62.827,62.827,0,0,0-22.7,27.561,62.562,62.562,0,0,0,5.776,59.409,62.827,62.827,0,0,0,27.561,22.7,62.562,62.562,0,0,0,59.409-5.776,62.827,62.827,0,0,0,22.7-27.562,62.561,62.561,0,0,0-5.776-59.409,62.828,62.828,0,0,0-27.562-22.7A62.253,62.253,0,0,0,122.394,62.109Z" transform="translate(189.56 137.55)" fill="#fff"/>
      </g>
      <g id="GMP-2" data-name="GMP" transform="translate(9.871 9.509)">
        <path id="Path_809" data-name="Path 809" d="M129.788,77.825a62.283,62.283,0,0,1,.014,88.068l-.014.014a31.142,31.142,0,0,0,44.041,44.041h0a124.579,124.579,0,0,0,0-176.179Z" transform="translate(38.822 2.717)" fill="#ea4335"/>
        <path id="Path_810" data-name="Path 810" d="M220.672,44.483A124.577,124.577,0,0,0,44.493,220.662l44.041-44.041a62.294,62.294,0,0,1,88.1-88.1,31.142,31.142,0,0,0,44.041-44.041Z" transform="translate(-8.006 -7.996)" fill="url(#linear-gradient)"/>
        <path id="Path_811" data-name="Path 811" d="M209.959,171.161h0L165.918,127.12h0a62.3,62.3,0,0,1-88.1,0h0L33.78,171.161h0A124.592,124.592,0,0,0,209.959,171.161Z" transform="translate(2.707 41.519)" fill="#fbbc04"/>
        <circle id="Ellipse_69" data-name="Ellipse 69" cx="31.144" cy="31.144" r="31.144" transform="translate(159.491 159.507)" fill="#ea4335"/>
        <circle id="Ellipse_70" data-name="Ellipse 70" cx="31.144" cy="31.144" r="31.144" transform="translate(27.356 159.508)" fill="#34a853"/>
      </g>
    </g>
  </g>
</svg>
